<svg width="30" height="30" viewBox="0 0 30 30" fill="none" xmlns="http://www.w3.org/2000/svg">
<g clip-path="url(#clip0_393_34279)">
<path d="M12.6654 17.25L9.33203 24.5833" stroke="#222222" stroke-width="2" stroke-linejoin="round"/>
<path d="M18 17.25L21.3333 24.5833" stroke="#222222" stroke-width="2" stroke-linejoin="round"/>
<path d="M15.332 24.5833V17.25" stroke="#222222" stroke-width="2" stroke-linejoin="round"/>
<path d="M8 10.584C8 14.634 11.2833 17.9173 15.3333 17.9173C19.3833 17.9173 22.6667 14.634 22.6667 10.584" stroke="#222222" stroke-width="2" stroke-linejoin="round"/>
<path d="M20.0013 21.25H10.668" stroke="#222222" stroke-width="2" stroke-linejoin="round"/>
<path d="M8.66667 12.584H6" stroke="#222222" stroke-width="2" stroke-linejoin="round"/>
<path d="M24.6667 12.584H22" stroke="#222222" stroke-width="2" stroke-linejoin="round"/>
<path d="M13.1354 9.91602C10.7667 9.91602 7.33203 9.91602 7.33203 9.91602" stroke="#222222" stroke-width="2" stroke-linejoin="round"/>
<path d="M23.3323 9.91602C23.3323 9.91602 21.5369 9.91602 19.6836 9.91602" stroke="#222222" stroke-width="2" stroke-linejoin="round"/>
<path d="M20.6614 -8.75027C20.6647 -5.52827 17.9987 -4.69494 17.9987 -1.41694C17.9987 1.86106 20.6647 2.69439 20.6614 5.9164C20.658 9.13839 17.9987 10.0277 17.9987 13.2497M17.328 -8.75027C17.3314 -5.52827 14.6654 -4.69494 14.6654 -1.41694C14.6654 1.86106 17.3314 2.69439 17.328 5.9164C17.3247 9.13839 14.6654 10.0277 14.6654 13.2497M13.9947 -8.75027C13.998 -5.52827 11.332 -4.69494 11.332 -1.41694C11.332 1.86106 13.998 2.69439 13.9947 5.9164C13.9914 9.13839 11.332 10.0277 11.332 13.2497M20.6614 -23.4609C20.6647 -20.2389 17.9987 -19.4056 17.9987 -16.1276C17.9987 -12.8496 20.6647 -12.0163 20.6614 -8.79427V-8.75027C20.6647 -5.52827 17.9987 -4.69494 17.9987 -1.41694C17.9987 1.86106 20.6647 2.69439 20.6614 5.9164C20.658 9.13839 17.9987 10.0277 17.9987 13.2497M17.328 -23.4609C17.3314 -20.2389 14.6654 -19.4056 14.6654 -16.1276C14.6654 -12.8496 17.3314 -12.0163 17.328 -8.79427V-8.75027C17.3314 -5.52827 14.6654 -4.69494 14.6654 -1.41694C14.6654 1.86106 17.3314 2.69439 17.328 5.9164C17.3247 9.13839 14.6654 10.0277 14.6654 13.2497M13.9947 -23.4609C13.998 -20.2389 11.332 -19.4056 11.332 -16.1276C11.332 -12.8496 13.998 -12.0163 13.9947 -8.79427V-8.75027C13.998 -5.52827 11.332 -4.69494 11.332 -1.41694C11.332 1.86106 13.998 2.69439 13.9947 5.9164C13.9914 9.13839 11.332 10.0277 11.332 13.2497" stroke="#222222" stroke-width="2" stroke-linejoin="round"/>
</g>
<defs>
<clipPath id="clip0_393_34279">
<rect width="30" height="30" fill="white"/>
</clipPath>
</defs>
</svg>
