<svg width="30" height="29" viewBox="0 0 30 29" fill="none" xmlns="http://www.w3.org/2000/svg">
<g clip-path="url(#clip0_393_34274)">
<path d="M17.6653 12.0971C17.582 9.98977 15.714 8.18017 12.1893 6.6103L11.668 6.38281L11.1466 6.6103C7.53997 8.2169 5.66797 10.0742 5.66797 12.2447V12.8891L7.0013 12.8885H8.33464H15.0013H16.3346L17.668 12.8891V12.2447L17.6653 12.0971ZM7.0913 11.6002L7.10464 11.5545L7.14597 11.4288C7.57997 10.2121 8.99597 9.02246 11.464 7.88952L11.668 7.79737L11.872 7.88952L12.1233 8.00681C14.5186 9.14361 15.8653 10.3365 16.2313 11.5545L16.244 11.6002H7.0913Z" fill="#222222"/>
<path d="M15.6681 16.1095H7.66406V12.2441H15.6681V16.1095Z" stroke="#222222" stroke-width="2" stroke-linecap="round" stroke-linejoin="round"/>
<path d="M12.3333 15.95H11V14.1777H12.3333V15.95Z" fill="#222222"/>
<path d="M21.3056 8.50025C21.5563 9.39861 21.6696 10.3911 21.6696 11.6007C21.6696 13.1125 21.2709 14.618 20.4809 16.1118L18.9609 16.1111C19.8809 14.5948 20.3363 13.0932 20.3363 11.6007C20.3363 10.3601 20.2096 9.40118 19.9316 8.54536C20.5443 7.41178 21.0029 7.41178 21.3056 8.50025Z" fill="#222222"/>
<path d="M21.068 7.11488C22.4906 7.2979 20.208 9.40072 19.93 8.5449C19.4106 8.79301 19.0446 9.29503 19.0046 9.88341L19.0013 9.9891H17.668C17.668 8.73243 18.4946 7.6633 19.6506 7.25988C19.5513 6.81779 21.2393 6.73917 21.068 7.11488Z" fill="#222222"/>
<path d="M21.0661 7.11488C22.4888 7.2979 23.5954 8.44437 23.6628 9.85248L23.6661 9.9891H22.3328C22.3328 9.31695 21.9074 8.74146 21.3021 8.49979C20.8714 8.19497 20.5294 8.02548 19.6488 7.25988C19.5494 6.81779 21.2374 6.73917 21.0661 7.11488Z" fill="#222222"/>
<path d="M21.068 7.11536C20.94 7.17336 20.2086 7.45112 19.6506 7.26036C19.5513 6.81827 19.0186 6.44514 18.3346 6.44514C17.612 6.44514 17.0593 6.86145 17.0053 7.33641L17.0013 7.41181H15.668C15.668 6.13774 16.886 5.15625 18.3346 5.15625C19.1226 5.15625 19.8426 5.44689 20.3353 5.91669C20.8273 5.44625 21.2393 6.73965 21.068 7.11536Z" fill="#222222"/>
<path d="M22.3362 5.15625C23.7382 5.15625 24.9242 6.07523 24.9988 7.28936L25.0028 7.41181H23.6695C23.6695 6.90656 23.0968 6.44514 22.3362 6.44514C21.7288 6.44514 21.2408 6.73965 21.0695 7.11536C21.0108 7.20301 20.4902 7.20881 19.6522 7.26036C19.5528 6.81827 19.8442 5.44689 20.3368 5.91669C20.8288 5.44625 21.5482 5.15625 22.3362 5.15625Z" fill="#222222"/>
<mask id="mask0_393_34274" style="mask-type:alpha" maskUnits="userSpaceOnUse" x="-12" y="-12" width="55" height="53">
<path d="M42.0013 -11.2773H-11.332V40.2782H42.0013V-11.2773Z" fill="#F2DDBB"/>
</mask>
<g mask="url(#mask0_393_34274)">
<path d="M21.0404 18.0449C21.7864 18.0456 22.5077 18.3098 23.051 18.8028C23.311 19.038 23.6517 19.1791 24.0137 19.2075L24.151 19.2127V20.5015C23.405 20.5015 22.6837 20.2367 22.1397 19.7437C21.8477 19.4788 21.453 19.3338 21.0404 19.3338C20.627 19.3338 20.2324 19.4788 19.9404 19.7437C19.3964 20.2367 18.675 20.5015 17.929 20.5015C17.2364 20.5015 16.5644 20.2734 16.037 19.8461L15.9177 19.7437C15.625 19.4788 15.231 19.3338 14.8177 19.3338C14.4044 19.3338 14.0104 19.4788 13.7184 19.7437C13.1744 20.2367 12.4524 20.5015 11.7064 20.5015C10.9604 20.5015 10.239 20.2367 9.69504 19.7437C9.40304 19.4788 9.00904 19.3338 8.59571 19.3338C8.18237 19.3338 7.78838 19.4788 7.49571 19.7437C6.99037 20.2012 6.33238 20.4629 5.64371 20.4977L5.48438 20.5015V19.2127C5.85171 19.2127 6.20371 19.0979 6.48304 18.8866L6.58437 18.8028C7.12837 18.3098 7.84971 18.0456 8.59571 18.0449C9.34171 18.0456 10.063 18.3098 10.607 18.8028C10.899 19.0677 11.293 19.2127 11.7064 19.2127C12.1197 19.2127 12.5137 19.0683 12.8064 18.8028C13.3504 18.3104 14.0717 18.0456 14.8177 18.0449C15.5637 18.0456 16.285 18.3098 16.829 18.8028C17.1217 19.0677 17.5157 19.2127 17.929 19.2127C18.3424 19.2127 18.7364 19.0677 19.0284 18.8028C19.5724 18.3098 20.2937 18.0456 21.0404 18.0449Z" fill="#222222"/>
<path d="M39.474 18.0449C40.22 18.0456 40.9413 18.3098 41.4846 18.8028C41.7446 19.038 42.0853 19.1791 42.4473 19.2075L42.5846 19.2127V20.5015C41.8386 20.5015 41.1173 20.2367 40.5733 19.7437C40.2813 19.4788 39.8866 19.3338 39.474 19.3338C39.0606 19.3338 38.666 19.4788 38.374 19.7437C37.83 20.2367 37.1086 20.5015 36.3626 20.5015C35.67 20.5015 34.998 20.2734 34.4706 19.8461L34.3513 19.7437C34.0586 19.4788 33.6646 19.3338 33.2513 19.3338C32.838 19.3338 32.444 19.4788 32.152 19.7437C31.608 20.2367 30.886 20.5015 30.14 20.5015C29.394 20.5015 28.6726 20.2367 28.1286 19.7437C27.8366 19.4788 27.4426 19.3338 27.0293 19.3338C26.616 19.3338 26.222 19.4788 25.9293 19.7437C25.424 20.2012 24.766 20.4629 24.0773 20.4977L23.918 20.5015V19.2127C24.2853 19.2127 24.6373 19.0979 24.9166 18.8866L25.018 18.8028C25.562 18.3098 26.2833 18.0456 27.0293 18.0449C27.7753 18.0456 28.4966 18.3098 29.0406 18.8028C29.3326 19.0677 29.7266 19.2127 30.14 19.2127C30.5533 19.2127 30.9473 19.0683 31.24 18.8028C31.784 18.3104 32.5053 18.0456 33.2513 18.0449C33.9973 18.0456 34.7186 18.3098 35.2626 18.8028C35.5553 19.0677 35.9493 19.2127 36.3626 19.2127C36.776 19.2127 37.17 19.0677 37.462 18.8028C38.006 18.3098 38.7273 18.0456 39.474 18.0449Z" fill="#222222"/>
<path d="M2.47397 18.0449C3.21997 18.0456 3.9413 18.3098 4.48463 18.8028C4.74463 19.038 5.0853 19.1791 5.4473 19.2075L5.58463 19.2127V20.5015C4.83863 20.5015 4.1173 20.2367 3.5733 19.7437C3.2813 19.4788 2.88663 19.3338 2.47397 19.3338C2.06063 19.3338 1.66597 19.4788 1.37397 19.7437C0.829967 20.2367 0.108635 20.5015 -0.637365 20.5015C-1.33003 20.5015 -2.00203 20.2734 -2.52936 19.8461L-2.6487 19.7437C-2.94137 19.4788 -3.33537 19.3338 -3.7487 19.3338C-4.16203 19.3338 -4.55603 19.4788 -4.84803 19.7437C-5.39203 20.2367 -6.11403 20.5015 -6.86003 20.5015C-7.60603 20.5015 -8.32736 20.2367 -8.87137 19.7437C-9.16336 19.4788 -9.55736 19.3338 -9.9707 19.3338C-10.384 19.3338 -10.778 19.4788 -11.0707 19.7437C-11.576 20.2012 -12.234 20.4629 -12.9227 20.4977L-13.082 20.5015V19.2127C-12.7147 19.2127 -12.3627 19.0979 -12.0834 18.8866L-11.982 18.8028C-11.438 18.3098 -10.7167 18.0456 -9.9707 18.0449C-9.2247 18.0456 -8.50337 18.3098 -7.95936 18.8028C-7.66736 19.0677 -7.27337 19.2127 -6.86003 19.2127C-6.4467 19.2127 -6.0527 19.0683 -5.76003 18.8028C-5.21603 18.3104 -4.4947 18.0456 -3.7487 18.0449C-3.0027 18.0456 -2.28137 18.3098 -1.73736 18.8028C-1.4447 19.0677 -1.0507 19.2127 -0.637365 19.2127C-0.224031 19.2127 0.169968 19.0677 0.461967 18.8028C1.00597 18.3098 1.7273 18.0456 2.47397 18.0449Z" fill="#222222"/>
</g>
<mask id="mask1_393_34274" style="mask-type:alpha" maskUnits="userSpaceOnUse" x="-12" y="-12" width="55" height="53">
<path d="M42.0013 -11.2773H-11.332V40.2782H42.0013V-11.2773Z" fill="#F2DDBB"/>
</mask>
<g mask="url(#mask1_393_34274)">
<path d="M21.0404 21.2676C21.7864 21.2682 22.5077 21.5324 23.051 22.0254C23.311 22.2607 23.6517 22.4018 24.0137 22.4302L24.151 22.4353V23.7242C23.405 23.7242 22.6837 23.4593 22.1397 22.9663C21.8477 22.7015 21.453 22.5565 21.0404 22.5565C20.627 22.5565 20.2324 22.7015 19.9404 22.9663C19.3964 23.4593 18.675 23.7242 17.929 23.7242C17.2364 23.7242 16.5644 23.4961 16.037 23.0688L15.9177 22.9663C15.625 22.7015 15.231 22.5565 14.8177 22.5565C14.4044 22.5565 14.0104 22.7015 13.7184 22.9663C13.1744 23.4593 12.4524 23.7242 11.7064 23.7242C10.9604 23.7242 10.239 23.4593 9.69504 22.9663C9.40304 22.7015 9.00904 22.5565 8.59571 22.5565C8.18237 22.5565 7.78838 22.7015 7.49571 22.9663C6.99037 23.4239 6.33238 23.6855 5.64371 23.7203L5.48438 23.7242V22.4353C5.85171 22.4353 6.20371 22.3206 6.48304 22.1092L6.58437 22.0254C7.12837 21.5324 7.84971 21.2682 8.59571 21.2676C9.34171 21.2682 10.063 21.5324 10.607 22.0254C10.899 22.2903 11.293 22.4353 11.7064 22.4353C12.1197 22.4353 12.5137 22.291 12.8064 22.0254C13.3504 21.5331 14.0717 21.2682 14.8177 21.2676C15.5637 21.2682 16.285 21.5324 16.829 22.0254C17.1217 22.2903 17.5157 22.4353 17.929 22.4353C18.3424 22.4353 18.7364 22.2903 19.0284 22.0254C19.5724 21.5324 20.2937 21.2682 21.0404 21.2676Z" fill="#222222"/>
<path d="M39.474 21.2676C40.22 21.2682 40.9413 21.5324 41.4846 22.0254C41.7446 22.2607 42.0853 22.4018 42.4473 22.4302L42.5846 22.4353V23.7242C41.8386 23.7242 41.1173 23.4593 40.5733 22.9663C40.2813 22.7015 39.8866 22.5565 39.474 22.5565C39.0606 22.5565 38.666 22.7015 38.374 22.9663C37.83 23.4593 37.1086 23.7242 36.3626 23.7242C35.67 23.7242 34.998 23.4961 34.4706 23.0688L34.3513 22.9663C34.0586 22.7015 33.6646 22.5565 33.2513 22.5565C32.838 22.5565 32.444 22.7015 32.152 22.9663C31.608 23.4593 30.886 23.7242 30.14 23.7242C29.394 23.7242 28.6726 23.4593 28.1286 22.9663C27.8366 22.7015 27.4426 22.5565 27.0293 22.5565C26.616 22.5565 26.222 22.7015 25.9293 22.9663C25.424 23.4239 24.766 23.6855 24.0773 23.7203L23.918 23.7242V22.4353C24.2853 22.4353 24.6373 22.3206 24.9166 22.1092L25.018 22.0254C25.562 21.5324 26.2833 21.2682 27.0293 21.2676C27.7753 21.2682 28.4966 21.5324 29.0406 22.0254C29.3326 22.2903 29.7266 22.4353 30.14 22.4353C30.5533 22.4353 30.9473 22.291 31.24 22.0254C31.784 21.5331 32.5053 21.2682 33.2513 21.2676C33.9973 21.2682 34.7186 21.5324 35.2626 22.0254C35.5553 22.2903 35.9493 22.4353 36.3626 22.4353C36.776 22.4353 37.17 22.2903 37.462 22.0254C38.006 21.5324 38.7273 21.2682 39.474 21.2676Z" fill="#222222"/>
<path d="M2.47397 21.2676C3.21997 21.2682 3.9413 21.5324 4.48463 22.0254C4.74463 22.2607 5.0853 22.4018 5.4473 22.4302L5.58463 22.4353V23.7242C4.83863 23.7242 4.1173 23.4593 3.5733 22.9663C3.2813 22.7015 2.88663 22.5565 2.47397 22.5565C2.06063 22.5565 1.66597 22.7015 1.37397 22.9663C0.829967 23.4593 0.108635 23.7242 -0.637365 23.7242C-1.33003 23.7242 -2.00203 23.4961 -2.52936 23.0688L-2.6487 22.9663C-2.94137 22.7015 -3.33537 22.5565 -3.7487 22.5565C-4.16203 22.5565 -4.55603 22.7015 -4.84803 22.9663C-5.39203 23.4593 -6.11403 23.7242 -6.86003 23.7242C-7.60603 23.7242 -8.32736 23.4593 -8.87137 22.9663C-9.16336 22.7015 -9.55736 22.5565 -9.9707 22.5565C-10.384 22.5565 -10.778 22.7015 -11.0707 22.9663C-11.576 23.4239 -12.234 23.6855 -12.9227 23.7203L-13.082 23.7242V22.4353C-12.7147 22.4353 -12.3627 22.3206 -12.0834 22.1092L-11.982 22.0254C-11.438 21.5324 -10.7167 21.2682 -9.9707 21.2676C-9.2247 21.2682 -8.50337 21.5324 -7.95936 22.0254C-7.66736 22.2903 -7.27337 22.4353 -6.86003 22.4353C-6.4467 22.4353 -6.0527 22.291 -5.76003 22.0254C-5.21603 21.5331 -4.4947 21.2682 -3.7487 21.2676C-3.0027 21.2682 -2.28137 21.5324 -1.73736 22.0254C-1.4447 22.2903 -1.0507 22.4353 -0.637365 22.4353C-0.224031 22.4353 0.169968 22.2903 0.461967 22.0254C1.00597 21.5324 1.7273 21.2682 2.47397 21.2676Z" fill="#222222"/>
</g>
</g>
<defs>
<clipPath id="clip0_393_34274">
<rect width="30" height="29" fill="white"/>
</clipPath>
</defs>
</svg>
