<svg width="30" height="29" viewBox="0 0 30 29" fill="none" xmlns="http://www.w3.org/2000/svg">
<path d="M22.0026 10.6328H23.3359C23.7039 10.6328 24.0026 10.9215 24.0026 11.2773V17.7217C24.0026 18.0774 23.7039 18.3661 23.3359 18.3661H22.0026C21.6346 18.3661 21.3359 18.0774 21.3359 17.7217V11.2773C21.3359 10.9215 21.6346 10.6328 22.0026 10.6328Z" stroke="#717171" stroke-width="2"/>
<path d="M19.3346 8.05469H20.668C21.036 8.05469 21.3346 8.3434 21.3346 8.69913V20.2991C21.3346 20.6549 21.036 20.9436 20.668 20.9436H19.3346C18.9666 20.9436 18.668 20.6549 18.668 20.2991V8.69913C18.668 8.3434 18.9666 8.05469 19.3346 8.05469Z" stroke="#717171" stroke-width="2"/>
<path d="M10.0026 8.05469H11.3359C11.7039 8.05469 12.0026 8.3434 12.0026 8.69913V20.2991C12.0026 20.6549 11.7039 20.9436 11.3359 20.9436H10.0026C9.6346 20.9436 9.33594 20.6549 9.33594 20.2991V8.69913C9.33594 8.3434 9.6346 8.05469 10.0026 8.05469Z" stroke="#717171" stroke-width="2"/>
<path d="M7.33464 10.6328H8.66797C9.03597 10.6328 9.33464 10.9215 9.33464 11.2773V17.7217C9.33464 18.0774 9.03597 18.3661 8.66797 18.3661H7.33464C6.96664 18.3661 6.66797 18.0774 6.66797 17.7217V11.2773C6.66797 10.9215 6.96664 10.6328 7.33464 10.6328Z" stroke="#717171" stroke-width="2"/>
<path d="M24 14.5H26" stroke="#717171" stroke-width="2"/>
<path d="M12 14.5H18.6667" stroke="#717171" stroke-width="2"/>
<path d="M4.66797 14.5H6.66797" stroke="#717171" stroke-width="2"/>
</svg>
