<svg width="29" height="30" viewBox="0 0 29 30" fill="none" xmlns="http://www.w3.org/2000/svg">
<g clip-path="url(#clip0_846_3022)">
<path d="M7.08984 13.666H22.5565V23.666C22.5565 24.034 22.2678 24.3327 21.9121 24.3327H7.73429C7.37855 24.3327 7.08984 24.034 7.08984 23.666V13.666Z" stroke="#222222" stroke-width="2"/>
<path d="M24.488 13.666H22.5547" stroke="#222222" stroke-width="2"/>
<path d="M7.08958 13.666H5.15625" stroke="#222222" stroke-width="2"/>
<path d="M10.6344 5.66797C9.03551 5.66797 7.73438 7.01397 7.73438 8.66797C7.73438 10.0926 8.70104 11.2833 9.98993 11.588V10.194C9.42218 9.93597 9.02326 9.34997 9.02326 8.66797C9.02326 7.7493 9.74633 7.0013 10.6344 7.0013C11.5224 7.0013 12.2455 7.7493 12.2455 8.66797C12.2455 9.34997 11.8466 9.93597 11.2788 10.194V11.588C12.5677 11.2833 13.5344 10.0926 13.5344 8.66797C13.5344 7.01397 12.2332 5.66797 10.6344 5.66797Z" fill="#222222"/>
<path d="M7.08984 13.6667C7.08984 12.194 8.24404 11 9.66762 11H9.49813H9.94731" stroke="#222222" stroke-width="2"/>
<path d="M11.3438 11H11.8206C12.5044 11 13.1604 11.2807 13.6438 11.7807L18.6891 17" stroke="#222222" stroke-width="2"/>
<path d="M22.4723 -9.5823C22.4756 -6.3603 19.8984 -5.52697 19.8984 -2.24897C19.8984 1.02903 22.4756 1.86236 22.4723 5.08436C22.4691 8.30636 19.8984 9.1957 19.8984 12.4177M22.4723 -24.293C22.4756 -21.071 19.8984 -20.2376 19.8984 -16.9596C19.8984 -13.6816 22.4756 -12.8483 22.4723 -9.6263V-9.5823C22.4756 -6.3603 19.8984 -5.52697 19.8984 -2.24897C19.8984 1.02903 22.4756 1.86236 22.4723 5.08436C22.4691 8.30636 19.8984 9.1957 19.8984 12.4177" stroke="#222222" stroke-width="2" stroke-linejoin="round"/>
<path d="M19.7653 -10.3831C19.7685 -7.16108 17.1914 -6.32775 17.1914 -3.04975C17.1914 0.22825 19.7685 1.06158 19.7653 4.28358C19.7621 7.50558 17.1914 8.39492 17.1914 11.6169M19.7653 -25.0938C19.7685 -21.8718 17.1914 -21.0384 17.1914 -17.7604C17.1914 -14.4824 19.7685 -13.6491 19.7653 -10.4271V-10.3831C19.7685 -7.16108 17.1914 -6.32775 17.1914 -3.04975C17.1914 0.22825 19.7685 1.06158 19.7653 4.28358C19.7621 7.50558 17.1914 8.39492 17.1914 11.6169" stroke="#222222" stroke-width="2" stroke-linejoin="round"/>
</g>
<defs>
<clipPath id="clip0_846_3022">
<rect width="29" height="30" fill="white"/>
</clipPath>
</defs>
</svg>
