<svg width="17" height="20" viewBox="0 0 17 20" fill="none" xmlns="http://www.w3.org/2000/svg">
<path d="M9.2832 1.75C9.64976 1.24328 10.1236 0.823699 10.671 0.521199C11.2184 0.218699 11.8258 0.0407339 12.4499 0C12.5043 0.56793 12.4438 1.141 12.272 1.68505C12.1002 2.22909 11.8206 2.73298 11.4499 3.16667C11.1113 3.6382 10.6583 4.01571 10.1334 4.26357C9.60847 4.51143 9.02909 4.62148 8.44987 4.58333C8.38976 4.07925 8.43262 3.5682 8.57587 3.08118C8.71911 2.59415 8.95975 2.14127 9.2832 1.75ZM5.11654 4.83333C2.7832 4.83333 0.283203 6.91667 0.283203 10.9167C0.283203 15 3.19987 20 5.5332 20C6.36654 20 7.61654 19.1667 8.86654 19.1667C10.1165 19.1667 11.0332 19.9167 12.1999 19.9167C14.7832 19.9167 16.6165 14.5833 16.6165 14.5833C15.8202 14.2397 15.1427 13.6693 14.6685 12.9431C14.1943 12.217 13.9443 11.3673 13.9499 10.5C13.9504 9.73981 14.1508 8.99313 14.5311 8.33491C14.9114 7.67669 15.4582 7.13009 16.1165 6.75C15.6893 6.1094 15.1049 5.58913 14.4192 5.23896C13.7334 4.88879 12.9693 4.72043 12.1999 4.75C10.5332 4.75 9.2832 5.66667 8.61654 5.66667C7.86654 5.66667 6.61654 4.83333 5.11654 4.83333Z" fill="#222222"/>
</svg>
