<svg width="24" height="24" viewBox="0 0 24 24" fill="none" xmlns="http://www.w3.org/2000/svg">
<path d="M18 3.00001C18.3791 2.99894 18.7445 3.14144 19.0228 3.39885C19.3011 3.65626 19.4716 4.00949 19.5 4.38751V10.38L20.8875 14.535C20.924 14.6477 20.9516 14.763 20.97 14.88L20.9925 15.06L21 15.24V22.5H19.5V21H4.5V22.5H3V15.24C3.00117 15.0604 3.02383 14.8817 3.0675 14.7075L3.1125 14.535L4.5 10.38V4.50001C4.49953 4.14083 4.62795 3.79341 4.86193 3.5209C5.0959 3.24839 5.41989 3.06888 5.775 3.01501L5.8875 3.00751L6 3.00001H18ZM19.5 16.5H4.5V19.5H19.5V16.5ZM18.4575 12H5.55L4.545 15H19.47L18.4575 12ZM18 4.50001H6V10.5H8.25V7.50001C8.24893 7.12093 8.39143 6.7555 8.64885 6.47722C8.90626 6.19894 9.25949 6.02844 9.6375 6.00001H14.25C14.6291 5.99894 14.9945 6.14144 15.2728 6.39885C15.5511 6.65626 15.7216 7.00949 15.75 7.38751V10.5H18V4.50001ZM14.25 7.50001H9.75V10.5H14.25V7.50001Z" fill="#222222"/>
</svg>
