<svg width="19" height="19" viewBox="0 0 19 19" fill="none" xmlns="http://www.w3.org/2000/svg">
<g clip-path="url(#clip0_406_4726)">
<path d="M17.0352 0.0898438C17.3335 0.0898438 17.6197 0.20837 17.8307 0.419349C18.0416 0.630327 18.1602 0.916475 18.1602 1.21484V16.9648C18.1602 17.2632 18.0416 17.5494 17.8307 17.7603C17.6197 17.9713 17.3335 18.0898 17.0352 18.0898H1.28516C0.986788 18.0898 0.70064 17.9713 0.489661 17.7603C0.278683 17.5494 0.160156 17.2632 0.160156 16.9648V1.21484C0.160156 0.916475 0.278683 0.630327 0.489661 0.419349C0.70064 0.20837 0.986788 0.0898438 1.28516 0.0898438L17.0352 0.0898438Z" fill="#222222"/>
<path d="M13.0645 9.08984H10.567V7.40234C10.567 6.68797 10.9157 5.99609 12.0295 5.99609H13.1657V3.77984C13.1657 3.77984 12.1363 3.60547 11.152 3.60547C9.09883 3.60547 7.75445 4.84859 7.75445 7.10422V9.08984H5.4707V11.6886H7.75445V18.0898H10.567V11.6886H12.6651L13.0645 9.08984Z" fill="white"/>
</g>
<defs>
<clipPath id="clip0_406_4726">
<rect width="18" height="18" fill="white" transform="translate(0.160156 0.0898438)"/>
</clipPath>
</defs>
</svg>
