<svg width="59" height="10" viewBox="0 0 59 10" fill="none" xmlns="http://www.w3.org/2000/svg">
<g clip-path="url(#clip0_336_5235)">
<path fill-rule="evenodd" clip-rule="evenodd" d="M5.69835 0.493482L4.40773 3.26848L1.32648 3.66536C1.26687 3.67281 1.21067 3.69728 1.16461 3.73585C1.11855 3.77442 1.08458 3.82544 1.06678 3.88282C1.04897 3.9402 1.04808 4.00149 1.06421 4.05936C1.08034 4.11722 1.11281 4.16922 1.15773 4.20911L3.43898 6.26223L2.82335 9.34036C2.81176 9.39921 2.81735 9.46015 2.83945 9.51592C2.86155 9.57168 2.89923 9.6199 2.948 9.65483C2.99676 9.68976 3.05455 9.70991 3.11446 9.71288C3.17437 9.71586 3.23387 9.70153 3.28585 9.67161L5.9796 8.10911L8.67648 9.67161C8.72847 9.70153 8.78797 9.71586 8.84787 9.71288C8.90778 9.70991 8.96557 9.68976 9.01434 9.65483C9.0631 9.6199 9.10079 9.57168 9.12289 9.51592C9.14499 9.46015 9.15058 9.39921 9.13898 9.34036L8.52335 6.26223L10.8046 4.20911C10.8486 4.16884 10.8802 4.11682 10.8956 4.05918C10.911 4.00154 10.9096 3.9407 10.8915 3.88385C10.8734 3.827 10.8394 3.77651 10.7936 3.73834C10.7477 3.70018 10.6919 3.67594 10.6327 3.66848L7.55148 3.26848L6.26398 0.493482C6.23912 0.438923 6.19909 0.392666 6.14867 0.36023C6.09825 0.327794 6.03956 0.310547 5.9796 0.310547C5.91965 0.310547 5.86096 0.327794 5.81054 0.36023C5.76012 0.392666 5.72009 0.438923 5.69523 0.493482H5.69835Z" fill="#222222"/>
</g>
<g clip-path="url(#clip1_336_5235)">
<path fill-rule="evenodd" clip-rule="evenodd" d="M17.6984 0.493482L16.4077 3.26848L13.3265 3.66536C13.2669 3.67281 13.2107 3.69728 13.1646 3.73585C13.1185 3.77442 13.0846 3.82544 13.0668 3.88282C13.049 3.9402 13.0481 4.00149 13.0642 4.05936C13.0803 4.11722 13.1128 4.16922 13.1577 4.20911L15.439 6.26223L14.8234 9.34036C14.8118 9.39921 14.8173 9.46015 14.8394 9.51592C14.8615 9.57168 14.8992 9.6199 14.948 9.65483C14.9968 9.68976 15.0546 9.70991 15.1145 9.71288C15.1744 9.71586 15.2339 9.70153 15.2859 9.67161L17.9796 8.10911L20.6765 9.67161C20.7285 9.70153 20.788 9.71586 20.8479 9.71288C20.9078 9.70991 20.9656 9.68976 21.0143 9.65483C21.0631 9.6199 21.1008 9.57168 21.1229 9.51592C21.145 9.46015 21.1506 9.39921 21.139 9.34036L20.5234 6.26223L22.8046 4.20911C22.8486 4.16884 22.8802 4.11682 22.8956 4.05918C22.911 4.00154 22.9096 3.9407 22.8915 3.88385C22.8734 3.827 22.8394 3.77651 22.7936 3.73834C22.7477 3.70018 22.6919 3.67594 22.6327 3.66848L19.5515 3.26848L18.264 0.493482C18.2391 0.438923 18.1991 0.392666 18.1487 0.36023C18.0982 0.327794 18.0396 0.310547 17.9796 0.310547C17.9197 0.310547 17.861 0.327794 17.8105 0.36023C17.7601 0.392666 17.7201 0.438923 17.6952 0.493482H17.6984Z" fill="#222222"/>
</g>
<g clip-path="url(#clip2_336_5235)">
<path fill-rule="evenodd" clip-rule="evenodd" d="M29.6984 0.493482L28.4077 3.26848L25.3265 3.66536C25.2669 3.67281 25.2107 3.69728 25.1646 3.73585C25.1185 3.77442 25.0846 3.82544 25.0668 3.88282C25.049 3.9402 25.0481 4.00149 25.0642 4.05936C25.0803 4.11722 25.1128 4.16922 25.1577 4.20911L27.439 6.26223L26.8234 9.34036C26.8118 9.39921 26.8173 9.46015 26.8394 9.51592C26.8615 9.57168 26.8992 9.6199 26.948 9.65483C26.9968 9.68976 27.0546 9.70991 27.1145 9.71288C27.1744 9.71586 27.2339 9.70153 27.2859 9.67161L29.9796 8.10911L32.6765 9.67161C32.7285 9.70153 32.788 9.71586 32.8479 9.71288C32.9078 9.70991 32.9656 9.68976 33.0143 9.65483C33.0631 9.6199 33.1008 9.57168 33.1229 9.51592C33.145 9.46015 33.1506 9.39921 33.139 9.34036L32.5234 6.26223L34.8046 4.20911C34.8486 4.16884 34.8802 4.11682 34.8956 4.05918C34.911 4.00154 34.9096 3.9407 34.8915 3.88385C34.8734 3.827 34.8394 3.77651 34.7936 3.73834C34.7477 3.70018 34.6919 3.67594 34.6327 3.66848L31.5515 3.26848L30.264 0.493482C30.2391 0.438923 30.1991 0.392666 30.1487 0.36023C30.0982 0.327794 30.0396 0.310547 29.9796 0.310547C29.9197 0.310547 29.861 0.327794 29.8105 0.36023C29.7601 0.392666 29.7201 0.438923 29.6952 0.493482H29.6984Z" fill="#222222"/>
</g>
<g clip-path="url(#clip3_336_5235)">
<path fill-rule="evenodd" clip-rule="evenodd" d="M41.6984 0.493482L40.4077 3.26848L37.3265 3.66536C37.2669 3.67281 37.2107 3.69728 37.1646 3.73585C37.1185 3.77442 37.0846 3.82544 37.0668 3.88282C37.049 3.9402 37.0481 4.00149 37.0642 4.05936C37.0803 4.11722 37.1128 4.16922 37.1577 4.20911L39.439 6.26223L38.8234 9.34036C38.8118 9.39921 38.8173 9.46015 38.8394 9.51592C38.8615 9.57168 38.8992 9.6199 38.948 9.65483C38.9968 9.68976 39.0546 9.70991 39.1145 9.71288C39.1744 9.71586 39.2339 9.70153 39.2859 9.67161L41.9796 8.10911L44.6765 9.67161C44.7285 9.70153 44.788 9.71586 44.8479 9.71288C44.9078 9.70991 44.9656 9.68976 45.0143 9.65483C45.0631 9.6199 45.1008 9.57168 45.1229 9.51592C45.145 9.46015 45.1506 9.39921 45.139 9.34036L44.5234 6.26223L46.8046 4.20911C46.8486 4.16884 46.8802 4.11682 46.8956 4.05918C46.911 4.00154 46.9096 3.9407 46.8915 3.88385C46.8734 3.827 46.8394 3.77651 46.7936 3.73834C46.7477 3.70018 46.6919 3.67594 46.6327 3.66848L43.5515 3.26848L42.264 0.493482C42.2391 0.438923 42.1991 0.392666 42.1487 0.36023C42.0982 0.327794 42.0396 0.310547 41.9796 0.310547C41.9197 0.310547 41.861 0.327794 41.8105 0.36023C41.7601 0.392666 41.7201 0.438923 41.6952 0.493482H41.6984Z" fill="#222222"/>
</g>
<g clip-path="url(#clip4_336_5235)">
<path fill-rule="evenodd" clip-rule="evenodd" d="M53.6984 0.493482L52.4077 3.26848L49.3265 3.66536C49.2669 3.67281 49.2107 3.69728 49.1646 3.73585C49.1185 3.77442 49.0846 3.82544 49.0668 3.88282C49.049 3.9402 49.0481 4.00149 49.0642 4.05936C49.0803 4.11722 49.1128 4.16922 49.1577 4.20911L51.439 6.26223L50.8234 9.34036C50.8118 9.39921 50.8173 9.46015 50.8394 9.51592C50.8615 9.57168 50.8992 9.6199 50.948 9.65483C50.9968 9.68976 51.0546 9.70991 51.1145 9.71288C51.1744 9.71586 51.2339 9.70153 51.2859 9.67161L53.9796 8.10911L56.6765 9.67161C56.7285 9.70153 56.788 9.71586 56.8479 9.71288C56.9078 9.70991 56.9656 9.68976 57.0143 9.65483C57.0631 9.6199 57.1008 9.57168 57.1229 9.51592C57.145 9.46015 57.1506 9.39921 57.139 9.34036L56.5234 6.26223L58.8046 4.20911C58.8486 4.16884 58.8802 4.11682 58.8956 4.05918C58.911 4.00154 58.9096 3.9407 58.8915 3.88385C58.8734 3.827 58.8394 3.77651 58.7936 3.73834C58.7477 3.70018 58.6919 3.67594 58.6327 3.66848L55.5515 3.26848L54.264 0.493482C54.2391 0.438923 54.1991 0.392666 54.1487 0.36023C54.0982 0.327794 54.0396 0.310547 53.9796 0.310547C53.9197 0.310547 53.861 0.327794 53.8105 0.36023C53.7601 0.392666 53.7201 0.438923 53.6952 0.493482H53.6984Z" fill="#222222"/>
</g>
<defs>
<clipPath id="clip0_336_5235">
<rect width="10" height="10" fill="white" transform="translate(0.980469)"/>
</clipPath>
<clipPath id="clip1_336_5235">
<rect width="10" height="10" fill="white" transform="translate(12.9805)"/>
</clipPath>
<clipPath id="clip2_336_5235">
<rect width="10" height="10" fill="white" transform="translate(24.9805)"/>
</clipPath>
<clipPath id="clip3_336_5235">
<rect width="10" height="10" fill="white" transform="translate(36.9805)"/>
</clipPath>
<clipPath id="clip4_336_5235">
<rect width="10" height="10" fill="white" transform="translate(48.9805)"/>
</clipPath>
</defs>
</svg>
