<svg width="20" height="20" viewBox="0 0 20 20" fill="none" xmlns="http://www.w3.org/2000/svg">
<path d="M15.075 15.6246C16.8375 13.9809 17.6188 11.2496 17.15 8.63086H10.1562V11.5246H14.1375C14.0602 11.9785 13.8884 12.4112 13.6332 12.7944C13.378 13.1777 13.0452 13.5032 12.6562 13.7496L15.075 15.6246Z" fill="#4285F4"/>
<path d="M3.5127 13.3187C4.02642 14.3311 4.76326 15.2137 5.66768 15.8999C6.5721 16.586 7.6205 17.058 8.73383 17.28C9.84717 17.5021 10.9964 17.4685 12.0949 17.1818C13.1933 16.8951 14.2124 16.3628 15.0752 15.625L12.6564 13.75C12.0828 14.1219 11.4316 14.3575 10.7528 14.4386C10.074 14.5197 9.38568 14.4442 8.74059 14.2179C8.0955 13.9916 7.51084 13.6205 7.03147 13.1331C6.55209 12.6457 6.19076 12.055 5.9752 11.4062L3.5127 13.3187Z" fill="#34A853"/>
<path d="M5.97476 11.4055C5.66226 10.4305 5.66226 9.53047 5.97476 8.55547L3.51226 6.63672C2.99863 7.67654 2.73145 8.82071 2.73145 9.98047C2.73145 11.1402 2.99863 12.2844 3.51226 13.3242L5.97476 11.4055Z" fill="#FBBC02"/>
<path d="M5.9752 8.55693C6.8377 5.85693 10.5064 4.29443 12.9689 6.60068L15.1189 4.49443C14.277 3.71801 13.2658 3.14834 12.1655 2.83057C11.0651 2.5128 9.90593 2.45567 8.77969 2.66369C7.65344 2.87172 6.59113 3.33918 5.67691 4.02905C4.7627 4.71892 4.02172 5.61222 3.5127 6.63818L5.9752 8.55693Z" fill="#EA4335"/>
</svg>
