<svg width="14" height="14" viewBox="0 0 14 14" fill="none" xmlns="http://www.w3.org/2000/svg">
<path fill-rule="evenodd" clip-rule="evenodd" d="M2.43945 10.5C2.83728 10.5 3.21881 10.658 3.50011 10.9393C3.78142 11.2206 3.93945 11.6022 3.93945 12C3.93945 12.3978 3.78142 12.7794 3.50011 13.0607C3.21881 13.342 2.83728 13.5 2.43945 13.5C2.04163 13.5 1.6601 13.342 1.37879 13.0607C1.09749 12.7794 0.939453 12.3978 0.939453 12C0.939453 11.6022 1.09749 11.2206 1.37879 10.9393C1.6601 10.658 2.04163 10.5 2.43945 10.5ZM7.43945 10.5C7.83728 10.5 8.21881 10.658 8.50011 10.9393C8.78142 11.2206 8.93945 11.6022 8.93945 12C8.93945 12.3978 8.78142 12.7794 8.50011 13.0607C8.21881 13.342 7.83728 13.5 7.43945 13.5C7.04163 13.5 6.6601 13.342 6.37879 13.0607C6.09749 12.7794 5.93945 12.3978 5.93945 12C5.93945 11.6022 6.09749 11.2206 6.37879 10.9393C6.6601 10.658 7.04163 10.5 7.43945 10.5ZM12.4395 10.5C12.8373 10.5 13.2188 10.658 13.5001 10.9393C13.7814 11.2206 13.9395 11.6022 13.9395 12C13.9395 12.3978 13.7814 12.7794 13.5001 13.0607C13.2188 13.342 12.8373 13.5 12.4395 13.5C12.0416 13.5 11.6601 13.342 11.3788 13.0607C11.0975 12.7794 10.9395 12.3978 10.9395 12C10.9395 11.6022 11.0975 11.2206 11.3788 10.9393C11.6601 10.658 12.0416 10.5 12.4395 10.5ZM2.43945 5.5C2.83728 5.5 3.21881 5.65804 3.50011 5.93934C3.78142 6.22064 3.93945 6.60218 3.93945 7C3.93945 7.39782 3.78142 7.77936 3.50011 8.06066C3.21881 8.34196 2.83728 8.5 2.43945 8.5C2.04163 8.5 1.6601 8.34196 1.37879 8.06066C1.09749 7.77936 0.939453 7.39782 0.939453 7C0.939453 6.60218 1.09749 6.22064 1.37879 5.93934C1.6601 5.65804 2.04163 5.5 2.43945 5.5ZM7.43945 5.5C7.83728 5.5 8.21881 5.65804 8.50011 5.93934C8.78142 6.22064 8.93945 6.60218 8.93945 7C8.93945 7.39782 8.78142 7.77936 8.50011 8.06066C8.21881 8.34196 7.83728 8.5 7.43945 8.5C7.04163 8.5 6.6601 8.34196 6.37879 8.06066C6.09749 7.77936 5.93945 7.39782 5.93945 7C5.93945 6.60218 6.09749 6.22064 6.37879 5.93934C6.6601 5.65804 7.04163 5.5 7.43945 5.5ZM12.4395 5.5C12.8373 5.5 13.2188 5.65804 13.5001 5.93934C13.7814 6.22064 13.9395 6.60218 13.9395 7C13.9395 7.39782 13.7814 7.77936 13.5001 8.06066C13.2188 8.34196 12.8373 8.5 12.4395 8.5C12.0416 8.5 11.6601 8.34196 11.3788 8.06066C11.0975 7.77936 10.9395 7.39782 10.9395 7C10.9395 6.60218 11.0975 6.22064 11.3788 5.93934C11.6601 5.65804 12.0416 5.5 12.4395 5.5ZM2.43945 0.5C2.83728 0.5 3.21881 0.658035 3.50011 0.93934C3.78142 1.22064 3.93945 1.60218 3.93945 2C3.93945 2.39782 3.78142 2.77936 3.50011 3.06066C3.21881 3.34196 2.83728 3.5 2.43945 3.5C2.04163 3.5 1.6601 3.34196 1.37879 3.06066C1.09749 2.77936 0.939453 2.39782 0.939453 2C0.939453 1.60218 1.09749 1.22064 1.37879 0.93934C1.6601 0.658035 2.04163 0.5 2.43945 0.5ZM7.43945 0.5C7.83728 0.5 8.21881 0.658035 8.50011 0.93934C8.78142 1.22064 8.93945 1.60218 8.93945 2C8.93945 2.39782 8.78142 2.77936 8.50011 3.06066C8.21881 3.34196 7.83728 3.5 7.43945 3.5C7.04163 3.5 6.6601 3.34196 6.37879 3.06066C6.09749 2.77936 5.93945 2.39782 5.93945 2C5.93945 1.60218 6.09749 1.22064 6.37879 0.93934C6.6601 0.658035 7.04163 0.5 7.43945 0.5ZM12.4395 0.5C12.8373 0.5 13.2188 0.658035 13.5001 0.93934C13.7814 1.22064 13.9395 1.60218 13.9395 2C13.9395 2.39782 13.7814 2.77936 13.5001 3.06066C13.2188 3.34196 12.8373 3.5 12.4395 3.5C12.0416 3.5 11.6601 3.34196 11.3788 3.06066C11.0975 2.77936 10.9395 2.39782 10.9395 2C10.9395 1.60218 11.0975 1.22064 11.3788 0.93934C11.6601 0.658035 12.0416 0.5 12.4395 0.5Z" fill="#222222"/>
</svg>
