<svg width="19" height="19" viewBox="0 0 19 19" fill="none" xmlns="http://www.w3.org/2000/svg">
<g clip-path="url(#clip0_406_4732)">
<path d="M17.0352 0.0898438H1.28516C0.986788 0.0898438 0.70064 0.20837 0.489661 0.419349C0.278683 0.630327 0.160156 0.916475 0.160156 1.21484L0.160156 16.9648C0.160156 17.5836 0.666406 18.0898 1.28516 18.0898H17.0352C17.3335 18.0898 17.6197 17.9713 17.8307 17.7603C18.0416 17.5494 18.1602 17.2632 18.1602 16.9648V1.21484C18.1602 0.916475 18.0416 0.630327 17.8307 0.419349C17.6197 0.20837 17.3335 0.0898438 17.0352 0.0898438Z" fill="#222222"/>
<path d="M8.99644 2.33984H9.69956C11.0496 2.33984 11.3027 2.35109 11.9439 2.37922C12.6639 2.41297 13.1533 2.52547 13.5808 2.69422C14.0252 2.86297 14.4021 3.09922 14.7789 3.47047C15.1164 3.80797 15.3864 4.21859 15.5552 4.66859L15.5664 4.70234C15.7239 5.11859 15.8364 5.59109 15.8702 6.27734L15.8758 6.50234C15.9039 7.07609 15.9096 7.41922 15.9096 8.97734V9.49484C15.9096 10.9573 15.8983 11.2105 15.8702 11.8742C15.8587 12.4338 15.7522 12.9873 15.5552 13.5111C15.3864 13.9611 15.1221 14.3717 14.7789 14.7092C14.4408 15.0521 14.0319 15.317 13.5808 15.4855L13.5471 15.4967C13.1308 15.6542 12.6527 15.7667 11.9721 15.7948L11.7471 15.8061C11.1733 15.8342 10.8302 15.8398 9.27206 15.8398H8.75456C7.96122 15.8497 7.16777 15.8365 6.37519 15.8005C5.81565 15.789 5.26215 15.6825 4.73831 15.4855C4.28831 15.3167 3.87769 15.0523 3.54019 14.7092C3.1973 14.3711 2.93238 13.9622 2.76394 13.5111L2.75269 13.4773C2.56687 12.9722 2.46428 12.4403 2.44894 11.9023L2.44331 11.6942C2.41122 10.8809 2.39997 10.0669 2.40956 9.25297V8.69047C2.40956 7.21672 2.42081 6.96922 2.44894 6.30547C2.48269 5.59672 2.59519 5.10734 2.75831 4.68547L2.76394 4.66859C2.93269 4.21859 3.19706 3.80797 3.54019 3.47047C3.87829 3.12759 4.28719 2.86267 4.73831 2.69422L4.77206 2.68297C5.27716 2.49715 5.80908 2.39457 6.34706 2.37922L6.55519 2.37359C7.12894 2.33984 7.46644 2.33984 8.99644 2.33984ZM9.50831 3.55484H8.81081C7.51706 3.55484 7.17394 3.56047 6.66769 3.58297L6.43144 3.59422C5.77331 3.62234 5.41894 3.73484 5.17706 3.82484C4.86206 3.94859 4.63706 4.09484 4.40081 4.33109C4.17581 4.56172 4.02394 4.78109 3.90581 5.09047L3.88894 5.12422C3.74515 5.5212 3.66909 5.93953 3.66394 6.36172L3.65269 6.61484C3.63019 7.12109 3.62456 7.47547 3.62456 8.83109V9.43859C3.62456 10.9236 3.63581 11.1542 3.66394 11.818V11.8573C3.69769 12.493 3.80456 12.8361 3.90019 13.0723C4.01831 13.3873 4.16456 13.6123 4.40644 13.8486C4.63144 14.0736 4.85644 14.2255 5.16019 14.3436L5.19394 14.3605C5.59092 14.5043 6.00924 14.5803 6.43144 14.5855L6.68456 14.5967C7.19081 14.6192 7.54519 14.6248 8.90081 14.6248H9.50831C10.9933 14.6248 11.2239 14.6136 11.8877 14.5855H11.9271C12.3425 14.5762 12.7534 14.4963 13.1421 14.3492C13.4346 14.2423 13.6989 14.068 13.9183 13.843C14.1433 13.618 14.2952 13.393 14.4133 13.0892L14.4302 13.0555C14.574 12.6585 14.65 12.2402 14.6552 11.818L14.6664 11.5648C14.6889 11.0586 14.6946 10.7042 14.6946 9.34859V8.73547C14.6946 7.25609 14.6833 7.02547 14.6552 6.36172V6.32234C14.646 5.90687 14.5661 5.496 14.4189 5.10734C14.3121 4.81484 14.1377 4.55047 13.9127 4.33109C13.7006 4.11299 13.4433 3.94403 13.1589 3.83609L13.1252 3.81922C12.7355 3.67718 12.3249 3.60114 11.9102 3.59422L11.6514 3.58297C11.1452 3.56047 10.8077 3.55484 9.51394 3.55484H9.50831ZM9.15956 5.62484C10.0785 5.62484 10.9599 5.98991 11.6097 6.63972C12.2595 7.28953 12.6246 8.17087 12.6246 9.08984C12.6246 10.0088 12.2595 10.8902 11.6097 11.54C10.9599 12.1898 10.0785 12.5548 9.15956 12.5548C8.24059 12.5548 7.35925 12.1898 6.70944 11.54C6.05962 10.8902 5.69456 10.0088 5.69456 9.08984C5.69456 8.17087 6.05962 7.28953 6.70944 6.63972C7.35925 5.98991 8.24059 5.62484 9.15956 5.62484ZM9.15956 6.83984C8.56282 6.83984 7.99053 7.0769 7.56857 7.49885C7.14661 7.92081 6.90956 8.49311 6.90956 9.08984C6.90956 9.68658 7.14661 10.2589 7.56857 10.6808C7.99053 11.1028 8.56282 11.3398 9.15956 11.3398C9.7563 11.3398 10.3286 11.1028 10.7506 10.6808C11.1725 10.2589 11.4096 9.68658 11.4096 9.08984C11.4096 8.49311 11.1725 7.92081 10.7506 7.49885C10.3286 7.0769 9.7563 6.83984 9.15956 6.83984ZM12.7596 4.67422C12.9744 4.67422 13.1804 4.75956 13.3323 4.91146C13.4842 5.06337 13.5696 5.26939 13.5696 5.48422C13.5696 5.69904 13.4842 5.90507 13.3323 6.05698C13.1804 6.20888 12.9744 6.29422 12.7596 6.29422C12.5447 6.29422 12.3387 6.20888 12.1868 6.05698C12.0349 5.90507 11.9496 5.69904 11.9496 5.48422C11.9496 5.26939 12.0349 5.06337 12.1868 4.91146C12.3387 4.75956 12.5447 4.67422 12.7596 4.67422Z" fill="white"/>
</g>
<defs>
<clipPath id="clip0_406_4732">
<rect width="18" height="18" fill="white" transform="translate(0.160156 0.0898438)"/>
</clipPath>
</defs>
</svg>
