<svg width="7" height="12" viewBox="0 0 7 12" fill="none" xmlns="http://www.w3.org/2000/svg">
<path fill-rule="evenodd" clip-rule="evenodd" d="M0.389997 1.14095C0.328276 1.07879 0.279402 1.00508 0.246166 0.924034C0.212931 0.842987 0.195984 0.756187 0.196293 0.668591C0.196603 0.580994 0.214163 0.494316 0.24797 0.413506C0.281778 0.332696 0.331172 0.259336 0.393331 0.197614C0.45549 0.135893 0.529197 0.0870194 0.610244 0.0537836C0.691291 0.0205478 0.778091 0.00360089 0.865688 0.00391041C0.953285 0.00421994 1.03996 0.0217799 1.12077 0.0555876C1.20158 0.0893954 1.27494 0.138789 1.33666 0.200948L6.67 5.53428C6.79417 5.65919 6.86386 5.82816 6.86386 6.00428C6.86386 6.18041 6.79417 6.34937 6.67 6.47428L1.33666 11.8076C1.27494 11.8698 1.20158 11.9192 1.12077 11.953C1.03996 11.9868 0.953285 12.0043 0.865688 12.0047C0.778091 12.005 0.691291 11.988 0.610244 11.9548C0.529197 11.9215 0.45549 11.8727 0.393331 11.8109C0.331172 11.7492 0.281778 11.6759 0.24797 11.5951C0.214163 11.5142 0.196603 11.4276 0.196293 11.34C0.195984 11.2524 0.212931 11.1656 0.246166 11.0845C0.279402 11.0035 0.328276 10.9298 0.389997 10.8676L5.25 6.00762L0.389997 1.14095Z" fill="#222222"/>
</svg>
