<svg width="25" height="24" viewBox="0 0 25 24" fill="none" xmlns="http://www.w3.org/2000/svg">
<g clip-path="url(#clip0_336_5272)">
<path d="M19.6104 3.00001C19.9894 2.99894 20.3549 3.14144 20.6331 3.39885C20.9114 3.65626 21.0819 4.00949 21.1104 4.38751V6.00001H21.8604C22.4344 5.99897 22.9872 6.2174 23.4055 6.61059C23.8237 7.00377 24.0759 7.54197 24.1104 8.11501V22.5H0.110355V8.25001C0.109321 7.67594 0.327754 7.12319 0.720939 6.70491C1.11412 6.28662 1.65232 6.03445 2.22536 6.00001H3.11036V4.50001C3.10988 4.14083 3.23831 3.79341 3.47228 3.5209C3.70625 3.24839 4.03024 3.06888 4.38535 3.01501L4.49786 3.00751L4.61036 3.00001H19.6104ZM22.6104 16.5H1.61036V21H22.6104V16.5ZM20.4579 12H3.76286L1.76036 15H22.4604L20.4579 12ZM21.8604 7.50001H21.1104V10.275L22.6104 12.525V8.25001C22.6117 8.06575 22.5451 7.88745 22.4234 7.74912C22.3017 7.61079 22.1333 7.52211 21.9504 7.50001H21.8604ZM3.11036 7.50001H2.36036C2.1761 7.49868 1.9978 7.56522 1.85947 7.68695C1.72114 7.80868 1.63246 7.97707 1.61036 8.16001V12.525L3.11036 10.275V7.50001ZM19.6104 4.50001H4.61036V10.5H7.61036V7.50001C7.60929 7.12093 7.75179 6.7555 8.0092 6.47722C8.26661 6.19894 8.61984 6.02844 8.99786 6.00001H15.1104C15.4894 5.99894 15.8549 6.14144 16.1331 6.39885C16.4114 6.65626 16.5819 7.00949 16.6104 7.38751V10.5H19.6104V4.50001ZM15.1104 7.50001H9.11036V10.5H15.1104V7.50001Z" fill="#222222"/>
</g>
<defs>
<clipPath id="clip0_336_5272">
<rect width="24" height="24" fill="white" transform="translate(0.110352)"/>
</clipPath>
</defs>
</svg>
