<svg width="16" height="14" viewBox="0 0 16 14" fill="none" xmlns="http://www.w3.org/2000/svg">
<path d="M8.48047 13.0005C11.9805 10.6355 15.4805 8.00051 15.4805 4.50051C15.4818 4.04051 15.3922 3.58479 15.2167 3.15956C15.0413 2.73432 14.7836 2.34796 14.4583 2.02269C14.133 1.69742 13.7467 1.43967 13.3214 1.26424C12.8962 1.08882 12.4405 0.99919 11.9805 1.00051C11.0805 1.00051 10.1905 1.34051 9.50547 2.02551L8.48047 3.05051L7.45547 2.02551C7.13113 1.69927 6.7455 1.44037 6.32074 1.26371C5.89599 1.08704 5.4405 0.996094 4.98047 0.996094C4.52044 0.996094 4.06495 1.08704 3.6402 1.26371C3.21545 1.44037 2.82981 1.69927 2.50547 2.02551C2.18003 2.35021 1.92195 2.73601 1.74605 3.16075C1.57015 3.58548 1.47989 4.04079 1.48047 4.50051C1.48047 8.00051 4.98047 10.6355 8.48047 13.0005Z" stroke="#222222"/>
</svg>
