<svg width="19" height="19" viewBox="0 0 19 19" fill="none" xmlns="http://www.w3.org/2000/svg">
<g clip-path="url(#clip0_406_4729)">
<path d="M18.1602 2.33984V15.8398C18.1602 16.4366 17.9231 17.0089 17.5011 17.4308C17.0792 17.8528 16.5069 18.0898 15.9102 18.0898H2.41016C1.81342 18.0898 1.24112 17.8528 0.819166 17.4308C0.397209 17.0089 0.160156 16.4366 0.160156 15.8398V2.33984C0.160156 1.74311 0.397209 1.17081 0.819166 0.748854C1.24112 0.326897 1.81342 0.0898438 2.41016 0.0898438L15.9102 0.0898438C16.5069 0.0898438 17.0792 0.326897 17.5011 0.748854C17.9231 1.17081 18.1602 1.74311 18.1602 2.33984Z" fill="#222222"/>
<path d="M10.6556 4.58458C10.1744 4.84258 9.78946 5.24929 9.55832 5.744C9.32718 6.23872 9.26222 6.79491 9.37312 7.32958C8.38563 7.28605 7.41889 7.03161 6.53792 6.58336C5.65695 6.13511 4.88215 5.50345 4.26562 4.73083C4.09788 4.99852 3.98485 5.29681 3.93308 5.60845C3.88131 5.92009 3.89181 6.2389 3.964 6.54646C4.03618 6.85401 4.1686 7.14421 4.35361 7.40028C4.53862 7.65635 4.77255 7.87321 5.04188 8.03833C4.65375 8.03833 4.26562 7.9652 3.91687 7.79083C3.93052 8.35582 4.13119 8.90032 4.48746 9.33904C4.84373 9.77776 5.33546 10.0859 5.88563 10.2152C5.5185 10.3148 5.13306 10.3263 4.76063 10.249C4.93093 10.7454 5.24693 11.1789 5.66737 11.493C6.08782 11.807 6.59318 11.9871 7.1175 12.0096C6.60808 12.4302 6.01548 12.7384 5.37857 12.9138C4.74165 13.0893 4.07484 13.1281 3.42188 13.0277C4.50912 13.7538 5.77804 14.1607 7.08478 14.2025C8.39151 14.2442 9.6838 13.919 10.8151 13.2637C11.9465 12.6084 12.8716 11.6493 13.4857 10.4951C14.0997 9.34088 14.3782 8.03771 14.2894 6.73333C14.7838 6.38988 15.2014 5.94739 15.5156 5.43395C15.0721 5.64786 14.5974 5.79025 14.1094 5.85583C14.6374 5.53318 15.0355 5.03554 15.2344 4.44958C14.745 4.73083 14.2162 4.93895 13.6537 5.04583C13.2711 4.65325 12.7714 4.39548 12.2298 4.31129C11.6881 4.22709 11.1337 4.32102 10.65 4.57895L10.6556 4.58458Z" fill="white"/>
</g>
<defs>
<clipPath id="clip0_406_4729">
<rect width="18" height="18" fill="white" transform="translate(0.160156 0.0898438)"/>
</clipPath>
</defs>
</svg>
