<svg width="16" height="16" viewBox="0 0 16 16" fill="none" xmlns="http://www.w3.org/2000/svg">
<path d="M8.16016 0.339844C10.2192 0.345142 12.1919 1.16748 13.645 2.62622C15.0981 4.08497 15.9128 6.06084 15.9102 8.11984C15.9033 10.1308 15.1149 12.0604 13.7117 13.501C12.3085 14.9415 10.4003 15.7802 8.39016 15.8398H8.14016C6.1291 15.8356 4.19844 15.0498 2.75603 13.6485C1.31362 12.2471 0.47243 10.3399 0.410156 8.32984V8.07984C0.412806 6.02615 1.23049 4.05747 2.68361 2.60623C4.13673 1.15498 6.10646 0.339842 8.16016 0.339844ZM10.1102 8.83984H6.21016C6.36016 11.7398 7.38016 14.1798 8.09016 14.3398H8.16016C8.84016 14.3398 9.88016 11.9698 10.0902 9.10984L10.1102 8.83984ZM14.3702 8.83984H11.6102C11.5202 10.7998 11.0802 12.6198 10.4302 13.9198C11.4441 13.5234 12.3371 12.8694 13.0211 12.0223C13.705 11.1753 14.1562 10.1645 14.3302 9.08984L14.3702 8.83984ZM4.70016 8.83984H1.96016C2.09617 9.96373 2.53441 11.0297 3.22823 11.9243C3.92204 12.8188 4.84545 13.5085 5.90016 13.9198C5.21309 12.443 4.81914 10.8468 4.74016 9.21984L4.71016 8.83984H4.70016ZM5.90016 2.25984L5.78016 2.30984C4.75282 2.73295 3.8566 3.42185 3.18352 4.30582C2.51044 5.18979 2.08475 6.23697 1.95016 7.33984H4.70016C4.79016 5.50984 5.18016 3.79984 5.76016 2.52984L5.90016 2.25984ZM8.15016 1.83984C7.45016 1.83984 6.37016 4.34984 6.21016 7.33984H10.1102C9.96016 4.43984 8.93016 1.99984 8.22016 1.83984H8.15016ZM10.4302 2.26984L10.4602 2.31984C11.1757 3.89931 11.5668 5.60639 11.6102 7.33984H14.3602C14.2212 6.21955 13.7829 5.15742 13.0913 4.2652C12.3997 3.37299 11.4804 2.68369 10.4302 2.26984Z" fill="#222222"/>
</svg>
