<svg width="24" height="20" viewBox="0 0 24 20" fill="none" xmlns="http://www.w3.org/2000/svg">
<path d="M11.8301 19.0008C17.0801 15.4533 22.3301 11.5008 22.3301 6.25076C22.3321 5.56077 22.1976 4.87719 21.9345 4.23934C21.6713 3.60148 21.2847 3.02194 20.7968 2.53404C20.3089 2.04614 19.7294 1.6595 19.0915 1.39636C18.4537 1.13323 17.7701 0.998784 17.0801 1.00076C15.7301 1.00076 14.3951 1.51076 13.3676 2.53826L11.8301 4.07576L10.2926 2.53826C9.80608 2.04891 9.22762 1.66056 8.59049 1.39556C7.95336 1.13056 7.27013 0.994141 6.58008 0.994141C5.89004 0.994141 5.2068 1.13056 4.56967 1.39556C3.93254 1.66056 3.35409 2.04891 2.86758 2.53826C2.37942 3.02532 1.9923 3.60402 1.72845 4.24112C1.46459 4.87823 1.32921 5.56118 1.33008 6.25076C1.33008 11.5008 6.58008 15.4533 11.8301 19.0008Z" fill="black" fill-opacity="0.5" stroke="white" stroke-width="1.5"/>
</svg>
