<svg width="12" height="13" viewBox="0 0 12 13" fill="none" xmlns="http://www.w3.org/2000/svg">
<path fill-rule="evenodd" clip-rule="evenodd" d="M5.57475 1.07694L4.02599 4.40694L0.328495 4.88319C0.256961 4.89213 0.189521 4.9215 0.13425 4.96778C0.0789782 5.01407 0.0382183 5.0753 0.016851 5.14415C-0.00451639 5.213 -0.0055855 5.28655 0.0137716 5.35599C0.0331288 5.42543 0.0720916 5.48782 0.125995 5.53569L2.86349 7.99944L2.12474 11.6932C2.11083 11.7638 2.11753 11.8369 2.14406 11.9039C2.17058 11.9708 2.2158 12.0286 2.27432 12.0706C2.33284 12.1125 2.40218 12.1367 2.47407 12.1402C2.54596 12.1438 2.61736 12.1266 2.67974 12.0907L5.91224 10.2157L9.14849 12.0907C9.21088 12.1266 9.28228 12.1438 9.35417 12.1402C9.42606 12.1367 9.49541 12.1125 9.55392 12.0706C9.61244 12.0286 9.65766 11.9708 9.68418 11.9039C9.71071 11.8369 9.71741 11.7638 9.7035 11.6932L8.96474 7.99944L11.7022 5.53569C11.7551 5.48737 11.793 5.42494 11.8114 5.35578C11.8299 5.28662 11.8282 5.21361 11.8065 5.14539C11.7848 5.07716 11.7441 5.01657 11.689 4.97078C11.634 4.92498 11.567 4.89589 11.496 4.88694L7.7985 4.40694L6.2535 1.07694C6.22367 1.01147 6.17563 0.955965 6.11513 0.917042C6.05462 0.878118 5.98419 0.857422 5.91224 0.857422C5.8403 0.857422 5.76987 0.878118 5.70936 0.917042C5.64886 0.955965 5.60082 1.01147 5.57099 1.07694H5.57475Z" fill="#222222"/>
</svg>
