<svg width="23" height="21" viewBox="0 0 23 21" fill="none" xmlns="http://www.w3.org/2000/svg">
<path d="M12.5609 0.43918C12.2796 0.157973 11.8982 0 11.5004 0C11.1027 0 10.7212 0.157973 10.4399 0.43918L0.469417 10.4082C0.328786 10.549 0.24986 10.7399 0.25 10.939C0.250141 11.138 0.329337 11.3288 0.470167 11.4694C0.610997 11.6101 0.801925 11.689 1.00095 11.6888C1.19997 11.6887 1.39079 11.6095 1.53142 11.4687L2.50042 10.4997V18.4392C2.50042 19.0359 2.73747 19.6082 3.15943 20.0302C3.58138 20.4521 4.15368 20.6892 4.75042 20.6892H18.2504C18.8472 20.6892 19.4195 20.4521 19.8414 20.0302C20.2634 19.6082 20.5004 19.0359 20.5004 18.4392V10.4997L21.4694 11.4687C21.61 11.6095 21.8009 11.6887 21.9999 11.6888C22.1989 11.689 22.3898 11.6101 22.5307 11.4694C22.6715 11.3288 22.7507 11.138 22.7508 10.939C22.751 10.7399 22.672 10.549 22.5314 10.4082L19.0004 6.87868V1.93918C19.0004 1.74027 18.9214 1.5495 18.7807 1.40885C18.6401 1.2682 18.4493 1.18918 18.2504 1.18918H16.7504C16.5515 1.18918 16.3607 1.2682 16.2201 1.40885C16.0794 1.5495 16.0004 1.74027 16.0004 1.93918V3.87868L12.5609 0.43918ZM19.0004 8.99968V18.4392C19.0004 18.6381 18.9214 18.8289 18.7807 18.9695C18.6401 19.1102 18.4493 19.1892 18.2504 19.1892H4.75042C4.55151 19.1892 4.36074 19.1102 4.22009 18.9695C4.07944 18.8289 4.00042 18.6381 4.00042 18.4392V8.99968L11.5004 1.49968L19.0004 8.99968Z" fill="#6B6B6B"/>
<path d="M11.5371 6.75781V8.20801H10.7803V6.75781H11.5371ZM11.4443 14.7314V16.04H10.6924V14.7314H11.4443ZM12.0791 13.1396C12.0791 12.9541 12.0433 12.793 11.9717 12.6562C11.9033 12.5195 11.7878 12.3975 11.625 12.29C11.4655 12.1826 11.2507 12.0801 10.9805 11.9824C10.5605 11.8294 10.1927 11.6618 9.87695 11.4795C9.5612 11.2939 9.31543 11.0645 9.13965 10.791C8.96712 10.5176 8.88086 10.1725 8.88086 9.75586C8.88086 9.35547 8.97363 9.00879 9.15918 8.71582C9.34798 8.4196 9.61003 8.19173 9.94531 8.03223C10.2806 7.86947 10.6696 7.78809 11.1123 7.78809C11.4574 7.78809 11.7666 7.84017 12.04 7.94434C12.3167 8.04525 12.5527 8.19336 12.748 8.38867C12.9466 8.58398 13.098 8.82487 13.2021 9.11133C13.3096 9.39453 13.3633 9.71842 13.3633 10.083H12.0742C12.0742 9.88118 12.0514 9.70215 12.0059 9.5459C11.9603 9.38965 11.8952 9.25781 11.8105 9.15039C11.7259 9.03971 11.6234 8.95671 11.5029 8.90137C11.3857 8.84603 11.2523 8.81836 11.1025 8.81836C10.8877 8.81836 10.7103 8.85905 10.5703 8.94043C10.4336 9.02181 10.3327 9.13249 10.2676 9.27246C10.2057 9.41243 10.1748 9.57357 10.1748 9.75586C10.1748 9.93164 10.2074 10.0863 10.2725 10.2197C10.3408 10.3499 10.4548 10.4688 10.6143 10.5762C10.777 10.6836 11 10.7926 11.2832 10.9033C11.7064 11.0596 12.0742 11.2321 12.3867 11.4209C12.6992 11.6064 12.9417 11.8343 13.1143 12.1045C13.2868 12.3747 13.373 12.7165 13.373 13.1299C13.373 13.5531 13.2754 13.9111 13.0801 14.2041C12.888 14.4971 12.6178 14.7201 12.2695 14.873C11.9212 15.026 11.516 15.1025 11.0537 15.1025C10.7575 15.1025 10.4645 15.0635 10.1748 14.9854C9.88509 14.9072 9.62142 14.7803 9.38379 14.6045C9.14941 14.4255 8.96224 14.1895 8.82227 13.8965C8.68229 13.6003 8.6123 13.2373 8.6123 12.8076H9.90625C9.90625 13.055 9.9388 13.2601 10.0039 13.4229C10.069 13.5856 10.1569 13.7158 10.2676 13.8135C10.3783 13.9079 10.502 13.9746 10.6387 14.0137C10.7754 14.0527 10.9137 14.0723 11.0537 14.0723C11.2816 14.0723 11.4704 14.0332 11.6201 13.9551C11.7731 13.877 11.887 13.7679 11.9619 13.6279C12.04 13.4847 12.0791 13.3219 12.0791 13.1396Z" fill="#6B6B6B"/>
</svg>
