<svg width="25" height="24" viewBox="0 0 25 24" fill="none" xmlns="http://www.w3.org/2000/svg">
<path d="M11.0214 2.62439C11.2088 2.41848 11.4372 2.25397 11.6919 2.14141C11.9466 2.02885 12.2219 1.9707 12.5004 1.9707C12.7788 1.9707 13.0542 2.02885 13.3089 2.14141C13.5636 2.25397 13.792 2.41848 13.9794 2.62439L14.9994 3.74439C15.1974 3.96181 15.441 4.13287 15.7127 4.24539C15.9844 4.35792 16.2776 4.40913 16.5714 4.39539L18.0844 4.32539C18.3624 4.31229 18.6401 4.35737 18.8997 4.45774C19.1593 4.55811 19.3951 4.71156 19.5921 4.90828C19.789 5.105 19.9426 5.34066 20.0433 5.60017C20.1439 5.85969 20.1892 6.13735 20.1764 6.41539L20.1054 7.92939C20.0916 8.22316 20.1429 8.51635 20.2554 8.78807C20.3679 9.05979 20.539 9.30334 20.7564 9.50139L21.8764 10.5214C22.0823 10.7088 22.2468 10.9372 22.3594 11.1919C22.4719 11.4466 22.5301 11.7219 22.5301 12.0004C22.5301 12.2788 22.4719 12.5542 22.3594 12.8089C22.2468 13.0636 22.0823 13.292 21.8764 13.4794L20.7564 14.4994C20.539 14.6974 20.3679 14.941 20.2554 15.2127C20.1429 15.4844 20.0916 15.7776 20.1054 16.0714L20.1754 17.5844C20.1885 17.8624 20.1434 18.1401 20.043 18.3997C19.9427 18.6593 19.7892 18.8951 19.5925 19.0921C19.3958 19.289 19.1601 19.4426 18.9006 19.5433C18.6411 19.6439 18.3634 19.6892 18.0854 19.6764L16.5714 19.6054C16.2776 19.5916 15.9844 19.6429 15.7127 19.7554C15.441 19.8679 15.1974 20.039 14.9994 20.2564L13.9794 21.3764C13.792 21.5823 13.5636 21.7468 13.3089 21.8594C13.0542 21.9719 12.7788 22.0301 12.5004 22.0301C12.2219 22.0301 11.9466 21.9719 11.6919 21.8594C11.4372 21.7468 11.2088 21.5823 11.0214 21.3764L10.0014 20.2564C9.80334 20.039 9.55979 19.8679 9.28807 19.7554C9.01635 19.6429 8.72316 19.5916 8.42939 19.6054L6.91639 19.6754C6.63836 19.6885 6.36066 19.6434 6.10105 19.543C5.84144 19.4427 5.60563 19.2892 5.40873 19.0925C5.21182 18.8958 5.05814 18.6601 4.95752 18.4006C4.8569 18.1411 4.81156 17.8634 4.82439 17.5854L4.89539 16.0714C4.90913 15.7776 4.85792 15.4844 4.74539 15.2127C4.63287 14.941 4.46181 14.6974 4.24439 14.4994L3.12439 13.4794C2.91848 13.292 2.75397 13.0636 2.64141 12.8089C2.52885 12.5542 2.4707 12.2788 2.4707 12.0004C2.4707 11.7219 2.52885 11.4466 2.64141 11.1919C2.75397 10.9372 2.91848 10.7088 3.12439 10.5214L4.24439 9.50139C4.46181 9.30334 4.63287 9.05979 4.74539 8.78807C4.85792 8.51635 4.90913 8.22316 4.89539 7.92939L4.82539 6.41639C4.81229 6.13836 4.85737 5.86066 4.95774 5.60105C5.05811 5.34144 5.21156 5.10563 5.40828 4.90873C5.605 4.71182 5.84066 4.55814 6.10017 4.45752C6.35969 4.3569 6.63735 4.31156 6.91539 4.32439L8.42939 4.39539C8.72316 4.40913 9.01635 4.35792 9.28807 4.24539C9.55979 4.13287 9.80334 3.96181 10.0014 3.74439L11.0214 2.62439V2.62439Z" stroke="#222222" stroke-width="1.67"/>
<path d="M8.5 14L11.5 11L13 12.5L16.5 9" stroke="#222222" stroke-width="1.5" stroke-linecap="round"/>
</svg>
